{"title":"[MARATHI] Gopala Re Gopala - Drama x264 MP3 [TMB]","uid":8649004,"size":867989140,"categoryP":"video","categoryS":"movies","magnet":"?xt=urn:btih:02ad6d4391eddf82db3e6b73ab5ff2eb01d66d8c&amp;dn=%5BMARATHI%5D+Gopala+Re+Gopala+-+Drama+x264+MP3+%5BTMB%5D&amp;tr=udp%3A%2F%2Ftracker.openbittorrent.com%3A80&amp;tr=udp%3A%2F%2Fopen.demonii.com%3A1337&amp;tr=udp%3A%2F%2Ftracker.coppersurfer.tk%3A6969&amp;tr=udp%3A%2F%2Fexodus.desync.com%3A6969","seeders":0,"leechers":1,"uploader":"SJonam","files":2,"time":1373055987,"description":" &lt;a href=&quot;http://desibbrg.org/images/16358683858652693851.gif&quot; rel=&quot;nofollow&quot; target=&quot;_NEW&quot;&gt;http://desibbrg.org/images/16358683858652693851.gif&lt;/a&gt; &lt;a href=&quot;\nhttp://desibbrg.org/images/15920758763092143976.png&quot; rel=&quot;nofollow&quot; target=&quot;_NEW&quot;&gt;\nhttp://desibbrg.org/images/15920758763092143976.png&lt;/a&gt; &lt;a href=&quot;\nhttp://desibbrg.org/images/12973287011706831841.png&quot; rel=&quot;nofollow&quot; target=&quot;_NEW&quot;&gt;\nhttp://desibbrg.org/images/12973287011706831841.png&lt;/a&gt; &lt;a href=&quot;\nhttp://desibbrg.org/images/15364940956852374378.png&quot; rel=&quot;nofollow&quot; target=&quot;_NEW&quot;&gt;\nhttp://desibbrg.org/images/15364940956852374378.png&lt;/a&gt; &lt;a href=&quot;\nhttp://desibbrg.org/images/11249359230080996608.png&quot; rel=&quot;nofollow&quot; target=&quot;_NEW&quot;&gt;\nhttp://desibbrg.org/images/11249359230080996608.png&lt;/a&gt; &lt;a href=&quot;\nhttp://desibbrg.org/images/54487010446400257491.png&quot; rel=&quot;nofollow&quot; target=&quot;_NEW&quot;&gt;\nhttp://desibbrg.org/images/54487010446400257491.png&lt;/a&gt;\n\nCast n Crew - \nStarring: Ankush Choudhari, Sharvani Pillai, Ramesh Vani, Sanjay Khapre, Uma Rane\nDirector: Kedar Shinde\nProducer: Jayesh Vira\nProduction: Ashtavinayak Production\nWriter: Hemant Edalabadkar\nMusic: Ajay-Atul\n\nMedia Info - \nGeneral\nComplete name                  : Gopala Re Gopala - Drama x264 MP3 [TMB].avi\nFormat                         : AVI\nFormat/Info                    : Audio Video Interleave\nFile size                      : 820 MiB\nDuration                       : 2h 25mn\nOverall bit rate               : 788 Kbps\nWriting application            : Lavf54.63.104\n\nVideo\nFormat                         : AVC\nFormat/Info                    : Advanced Video Codec\nFormat profile                 : &lt;a class=&quot;__cf_email__&quot; href=&quot;/cdn-cgi/l/email-protection&quot; data-cfemail=&quot;6a22030d022a2659445a&quot;&gt;[email&amp;#160;protected]&lt;/a&gt;&lt;script cf-hash='f9e31' type=&quot;text/javascript&quot;&gt;\n/* &lt;![CDATA[ */!function(){try{var t=&quot;currentScript&quot;in document?document.currentScript:function(){for(var t=document.getElementsByTagName(&quot;script&quot;),e=t.length;e--;)if(t[e].getAttribute(&quot;cf-hash&quot;))return t[e]}();if(t&amp;&amp;t.previousSibling){var e,r,n,i,c=t.previousSibling,a=c.getAttribute(&quot;data-cfemail&quot;);if(a){for(e=&quot;&quot;,r=parseInt(a.substr(0,2),16),n=2;a.length-n;n+=2)i=parseInt(a.substr(n,2),16)^r,e+=String.fromCharCode(i);e=document.createTextNode(e),c.parentNode.replaceChild(e,c)}}}catch(u){}}();/* ]]&gt; */&lt;/script&gt;\nFormat settings, CABAC         : Yes\nFormat settings, ReFrames      : 1 frame\nCodec ID                       : H264\nDuration                       : 2h 25mn\nBit rate                       : 519 Kbps\nWidth                          : 856 pixels\nHeight                         : 480 pixels\nDisplay aspect ratio           : 16:9\nFrame rate mode                : Variable\nFrame rate                     : 25.000 fps\nColor space                    : YUV\nChroma subsampling             : 4:2:0\nBit depth                      : 8 bits\nScan type                      : Progressive\nBits/(Pixel*Frame)             : 0.051\nStream size                    : 541 MiB (66%)\nWriting library                : x264 core 129\n\nAudio\nFormat                         : MPEG Audio\nFormat version                 : Version 1\nFormat profile                 : Layer 3\nMode                           : Joint stereo\nMode extension                 : MS Stereo\nCodec ID                       : 55\nCodec ID/Hint                  : MP3\nDuration                       : 2h 25mn\nBit rate mode                  : Constant\nBit rate                       : 256 Kbps\nChannel(s)                     : 2 channels\nSampling rate                  : 44.1 KHz\nCompression mode               : Lossy\nStream size                    : 266 MiB (32%)\nAlignment                      : Aligned on interleaves\nInterleave, duration           : 26 ms (0.65 video frame)\n\nRipper : Manojvb\n\nSeeding will be very slow for first few hours ;)\n\n\nSample in Torrent\n\n &lt;a href=&quot;\nhttp://desibbrg.org/images/48627592875446061657.gif&quot; rel=&quot;nofollow&quot; target=&quot;_NEW&quot;&gt;\nhttp://desibbrg.org/images/48627592875446061657.gif&lt;/a&gt;","torrent":{"xt":"urn:btih:02ad6d4391eddf82db3e6b73ab5ff2eb01d66d8c","amp;dn":"%5BMARATHI%5D+Gopala+Re+Gopala+-+Drama+x264+MP3+%5BTMB%5D","amp;tr":["udp%3A%2F%2Ftracker.openbittorrent.com%3A80","udp%3A%2F%2Fopen.demonii.com%3A1337","udp%3A%2F%2Ftracker.coppersurfer.tk%3A6969","udp%3A%2F%2Fexodus.desync.com%3A6969"],"infoHash":"02ad6d4391eddf82db3e6b73ab5ff2eb01d66d8c","infoHashBuffer":{"type":"Buffer","data":[2,173,109,67,145,237,223,130,219,62,107,115,171,95,242,235,1,214,109,140]},"announce":[],"urlList":[]}}